<svg width="40" height="40" viewBox="0 0 40 40" fill="none" xmlns="http://www.w3.org/2000/svg">
<g id="healthicons:yes-outline">
<g id="Group">
<path id="Vector" fill-rule="evenodd" clip-rule="evenodd" d="M20.0002 35.0002C28.2843 35.0002 35.0002 28.2843 35.0002 20.0002C35.0002 11.716 28.2843 5.00016 20.0002 5.00016C11.716 5.00016 5.00016 11.716 5.00016 20.0002C5.00016 28.2843 11.716 35.0002 20.0002 35.0002ZM20.0002 36.6668C29.2052 36.6668 36.6668 29.2052 36.6668 20.0002C36.6668 10.7952 29.2052 3.3335 20.0002 3.3335C10.7952 3.3335 3.3335 10.7952 3.3335 20.0002C3.3335 29.2052 10.7952 36.6668 20.0002 36.6668Z" fill="#50C755"/>
<path id="Vector_2" fill-rule="evenodd" clip-rule="evenodd" d="M28.8917 13.5495C29.0556 13.6976 29.1541 13.9047 29.1653 14.1254C29.1766 14.346 29.0997 14.5621 28.9517 14.7262L17.8217 27.027L11.0917 20.6028C10.9406 20.4484 10.8554 20.2413 10.854 20.0252C10.8527 19.8091 10.9353 19.601 11.0845 19.4447C11.2337 19.2884 11.4377 19.1961 11.6536 19.1874C11.8695 19.1786 12.0804 19.2541 12.2417 19.3978L17.7334 24.6395L27.7159 13.6087C27.7893 13.5275 27.8781 13.4616 27.977 13.4147C28.076 13.3678 28.1832 13.3409 28.2925 13.3355C28.4019 13.3301 28.5112 13.3463 28.6143 13.3831C28.7174 13.42 28.8122 13.4768 28.8934 13.5503L28.8917 13.5495Z" fill="#50C755"/>
</g>
</g>
</svg>
