<svg id="Layer_1" data-name="Layer 1" xmlns="http://www.w3.org/2000/svg" viewBox="0 0 572.66 106.26"><defs><style>.cls-1{fill:#a01007;}.cls-2{fill:#fff;}.cls-3{fill:#5f5e5e;}</style></defs><title>Solagro_logo_orig_angl</title><path class="cls-1" d="M107.87,467H11.47a.6.6,0,0,1-.6-.6V369.94a.6.6,0,0,1,.6-.6h96.4a.6.6,0,0,1,.6.6v96.41a.6.6,0,0,1-.6.6" transform="translate(-10.87 -368.19)"/><path class="cls-2" d="M87.73,438.49l3.58,5.61a18.85,18.85,0,0,1-5.51,1.15c-2.84.32-6.53.61-11.08.85A106.75,106.75,0,0,1,59,454.79a79.9,79.9,0,0,1-15.56,5.11c-1.2.24-2.57.51-4.13.79a14.08,14.08,0,0,1-3.13-.39,35.61,35.61,0,0,1-3.77-1.13,17.25,17.25,0,0,1-3.32-1.77,2.31,2.31,0,0,1-1.16-1.76c0-1.22.86-2.4,2.6-3.54a30.39,30.39,0,0,1,7.62-3.22q10-3.18,19.82-6.4a4,4,0,0,1,2.06.4,1.16,1.16,0,0,1,.63,1c0,1.1-1.16,2-3.46,2.77s-3.45,1.29-3.45,1.62a1.77,1.77,0,0,0,1.08.61c.77,0,2.49-.8,5.15-2.38s4-2.58,3.9-3l-.44-1.41.17-.24a19.15,19.15,0,0,0,3.46-2.5c.74-.73,1.12-1.32,1.12-1.76q0-1.53-2.24-4.08a54.26,54.26,0,0,0-6.73-6.15,76.19,76.19,0,0,0-6.81-5q-3.42-2.22-6.55-3.93A19.07,19.07,0,0,1,43.7,417a10.73,10.73,0,0,1-1.44-1.31c-.65-.81-1.18-1.48-1.57-2a3.4,3.4,0,0,0-1-1c-.3-.25-.7-.54-1.21-.89s-1.12-.74-1.83-1.18a8.74,8.74,0,0,1-2.92-3.72,14.8,14.8,0,0,1-1-5.91,11,11,0,0,1,.94-4.47,11.75,11.75,0,0,1,2.74-3.87,9,9,0,0,0,.53-.85c.18-.33.39-.69.63-1.1a27.69,27.69,0,0,1,7-6.18,95.53,95.53,0,0,1,12.91-7c.72-.24,1.58-.57,2.6-1s2.15-.94,3.41-1.59a16.27,16.27,0,0,1,2.37-1.09,26.62,26.62,0,0,1,3.09-.92c1.62-.44,3.44-.93,5.48-1.46q4.47-1.57,7.44-2.31a20.24,20.24,0,0,1,4.48-.73,6.84,6.84,0,0,1,4.44,1.22,4.3,4.3,0,0,1,1.48,3.53,12.75,12.75,0,0,1-.58,4.17,3.82,3.82,0,0,1-1.57,2.16q-10.59,5.73-17,8.62T64,391a3.52,3.52,0,0,1-2-.48,1.67,1.67,0,0,1-.72-1.47q0-1.63,4-3.62t3.94-3l-.8-.37a3.49,3.49,0,0,0-1,.18,9.91,9.91,0,0,0-1.21.49,70.31,70.31,0,0,0-11.89,7.77q-4,3.44-4,6a9.08,9.08,0,0,0,1,4.08,19,19,0,0,0,3,4.26,56.33,56.33,0,0,0,4.17,3.87q2.73,2.34,6.95,5.63,5.82,4.58,9,7.07A37.05,37.05,0,0,0,78,424a24.82,24.82,0,0,1,3,3.16,9.43,9.43,0,0,1,1.7,3.05,11.17,11.17,0,0,1,.63,2.86,40.4,40.4,0,0,1,.18,4.14c0,1,.21,1.5.63,1.65a7.14,7.14,0,0,0,2.06.21,2,2,0,0,0,.85-.15,5.67,5.67,0,0,0,.68-.4" transform="translate(-10.87 -368.19)"/><path class="cls-1" d="M148,416.19a11.52,11.52,0,0,0,1.23,5.24,9.81,9.81,0,0,0,4.87,4,20.92,20.92,0,0,0,8.34,1.48q7.23,0,11-2.91a6.63,6.63,0,0,0,2.78-5.56,6,6,0,0,0-1.21-3.78,8.06,8.06,0,0,0-3.62-2.46,55.57,55.57,0,0,0-7.29-2.09l-7.19-1.69a77.77,77.77,0,0,1-10.12-2.87,20.26,20.26,0,0,1-6.44-3.85,14.62,14.62,0,0,1-3.46-5.28,19.52,19.52,0,0,1-1.25-7.26q0-7.33,3.57-12.05a20.14,20.14,0,0,1,9.5-6.83,36.64,36.64,0,0,1,12.43-2.12,39.34,39.34,0,0,1,9.63,1.14,26.19,26.19,0,0,1,7.66,3.12,19.56,19.56,0,0,1,5.14,4.64,18.09,18.09,0,0,1,2.92,5.47,27.83,27.83,0,0,1,1,7.35H174.08a11.25,11.25,0,0,0-1.39-5.26,9.22,9.22,0,0,0-4.37-3.5,18.68,18.68,0,0,0-7.63-1.39c-4.19,0-7.27.79-9.23,2.39a7.4,7.4,0,0,0-2.93,6,5.71,5.71,0,0,0,2.32,4.92c.91.67,3.41,1.45,7.51,2.37l13.76,3.18a33.7,33.7,0,0,1,8.61,3.05,17.76,17.76,0,0,1,6.69,6.24,17.38,17.38,0,0,1,2.23,9.07,21,21,0,0,1-1.46,8,18.3,18.3,0,0,1-3.64,5.85,20.79,20.79,0,0,1-5.42,4,30,30,0,0,1-8,2.69,47.73,47.73,0,0,1-9.59,1,39.76,39.76,0,0,1-11.66-1.69,23.69,23.69,0,0,1-6.67-3.07,19.15,19.15,0,0,1-7.56-10.18,31.24,31.24,0,0,1-1.12-7.38Z" transform="translate(-10.87 -368.19)"/><path class="cls-1" d="M197.3,403.35a43.38,43.38,0,0,1,3.87-18.72,26.64,26.64,0,0,1,11.35-12.32,33.59,33.59,0,0,1,16.53-4.12,33.08,33.08,0,0,1,17.42,4.55,28.67,28.67,0,0,1,11.36,12.83,41.8,41.8,0,0,1,3.83,17.78,41.23,41.23,0,0,1-4.12,18.4,28,28,0,0,1-11.73,12.57,34.2,34.2,0,0,1-16.76,4.19,33.14,33.14,0,0,1-16.83-4.3A26.6,26.6,0,0,1,201,421.66a44,44,0,0,1-3.72-18.31m32.2,23.09a17,17,0,0,0,9.32-2.71,17.26,17.26,0,0,0,6.56-8.2,31.25,31.25,0,0,0,2.3-12.18,31.74,31.74,0,0,0-2.26-12.14,17,17,0,0,0-31.88,0,31.74,31.74,0,0,0-2.25,12.14,32.1,32.1,0,0,0,2.16,11.89,17.39,17.39,0,0,0,6.44,8.33,16.92,16.92,0,0,0,9.61,2.87" transform="translate(-10.87 -368.19)"/><polygon class="cls-1" points="261.45 68.64 261.45 1.69 275.43 1.69 275.43 56.57 308.73 56.57 308.73 68.64 261.45 68.64"/><path class="cls-1" d="M320.23,436.83l24-67h16l23.69,67H368.64L364.36,423H339.63L335,436.83Zm23.14-25.37h17.08L352.11,385h-.18Z" transform="translate(-10.87 -368.19)"/><path class="cls-1" d="M444.43,390.6h-13.8a13.76,13.76,0,0,0-5.08-7.68q-3.66-2.66-9.77-2.66a17.94,17.94,0,0,0-17.62,11.93,31.64,31.64,0,0,0-1.92,11.89,28.64,28.64,0,0,0,2.26,12.11,16.85,16.85,0,0,0,6.71,7.56,19.72,19.72,0,0,0,17.86,1,15.09,15.09,0,0,0,6-5.08,17.79,17.79,0,0,0,3.12-7.7H416.69V400.75h28v36.08h-9.29L434,428.4a34.87,34.87,0,0,1-5.71,5.69,21.58,21.58,0,0,1-6.58,3.19,29.09,29.09,0,0,1-8.66,1.23,32.5,32.5,0,0,1-10.95-1.93,27.29,27.29,0,0,1-10-6.36,31.21,31.21,0,0,1-7.18-11A45.37,45.37,0,0,1,386.38,385a29.75,29.75,0,0,1,11.48-12.5,33.12,33.12,0,0,1,17.19-4.35,37,37,0,0,1,14.08,2.64,25.66,25.66,0,0,1,8,4.94,23.23,23.23,0,0,1,5,6.56,25.8,25.8,0,0,1,2.35,8.27" transform="translate(-10.87 -368.19)"/><path class="cls-1" d="M457.27,369.87h33.2q7.75,0,12.19,2.17a16.61,16.61,0,0,1,7.13,6.76,19.45,19.45,0,0,1,2.68,10,17.77,17.77,0,0,1-2.75,10,15.37,15.37,0,0,1-7.59,6,12.66,12.66,0,0,1,7.11,6q1.41,2.79,1.41,9.75v4.55q0,5.79.78,7.84a4,4,0,0,0,2.14,2.18v1.73H498.13a28.18,28.18,0,0,1-1.55-9.38v-6.28q0-4.61-1.07-6.72a6.37,6.37,0,0,0-3.1-3q-2-.92-6.72-.91H471.25v26.32h-14Zm14,11.53v17.94H487.1c3.65,0,6.23-.48,7.75-1.46,2.43-1.54,3.64-4.05,3.64-7.51s-1.15-5.83-3.46-7.38q-2.37-1.59-7.47-1.59Z" transform="translate(-10.87 -368.19)"/><path class="cls-1" d="M519.17,403.35A43.38,43.38,0,0,1,523,384.63a26.62,26.62,0,0,1,11.34-12.32,33.62,33.62,0,0,1,16.53-4.12,33.06,33.06,0,0,1,17.42,4.55,28.64,28.64,0,0,1,11.37,12.83,41.79,41.79,0,0,1,3.82,17.78,41.1,41.1,0,0,1-4.12,18.4,28,28,0,0,1-11.73,12.57,34.17,34.17,0,0,1-16.76,4.19,33.19,33.19,0,0,1-16.83-4.3,26.65,26.65,0,0,1-11.2-12.55,44.18,44.18,0,0,1-3.71-18.31m32.2,23.09a17,17,0,0,0,9.31-2.71,17.2,17.2,0,0,0,6.56-8.2,31.25,31.25,0,0,0,2.3-12.18,31.74,31.74,0,0,0-2.25-12.14,17,17,0,0,0-31.89,0,31.74,31.74,0,0,0-2.25,12.14,32.1,32.1,0,0,0,2.16,11.89,17.4,17.4,0,0,0,6.45,8.33,16.89,16.89,0,0,0,9.61,2.87" transform="translate(-10.87 -368.19)"/><polygon class="cls-3" points="125.19 99.17 125.19 75.34 128.38 75.34 128.38 96.37 140.48 96.37 140.48 99.17 125.19 99.17"/><path class="cls-3" d="M157.2,443.53h3v3.37h-3Zm0,6.47h3v17.36h-3Z" transform="translate(-10.87 -368.19)"/><path class="cls-3" d="M167.42,450h3v2.4a9.58,9.58,0,0,1,1.25-1.48,5.81,5.81,0,0,1,1.71-1.07,5.31,5.31,0,0,1,2-.39,5.54,5.54,0,0,1,2,.37,4.39,4.39,0,0,1,1.57.95,5.94,5.94,0,0,1,1.12,1.62,7.71,7.71,0,0,1,2.35-2.26,5.53,5.53,0,0,1,2.78-.68,6.17,6.17,0,0,1,2.71.57,5,5,0,0,1,1.79,1.35,4.27,4.27,0,0,1,.84,1.71,13.13,13.13,0,0,1,.21,2.71v11.56h-3V455.19a3.16,3.16,0,0,0-.8-2.31,3,3,0,0,0-2.22-.81,3.89,3.89,0,0,0-3,1.29,5.05,5.05,0,0,0-1.21,3.61v10.39h-3v-12a3.58,3.58,0,0,0-.72-2.48,2.68,2.68,0,0,0-2.07-.78,4,4,0,0,0-3.15,1.48,5.25,5.25,0,0,0-1.29,3.58v10.23h-3Z" transform="translate(-10.87 -368.19)"/><path class="cls-3" d="M198.08,443.53H201v3.37h-2.95Zm0,6.47H201v17.36h-2.95Z" transform="translate(-10.87 -368.19)"/><path class="cls-3" d="M208.9,450v-4.85h2.93V450h2.77v2.38h-2.77v11.33a1.41,1.41,0,0,0,.38,1.07,1.88,1.88,0,0,0,1.29.34c.34,0,.7,0,1.1-.06v2.32a7.52,7.52,0,0,1-2.1.26,3.71,3.71,0,0,1-2.74-.87,4,4,0,0,1-.86-2.91V452.38h-2.35V450Z" transform="translate(-10.87 -368.19)"/><path class="cls-3" d="M234.29,461.82a9.32,9.32,0,0,1-1.18,2.88,7.42,7.42,0,0,1-2.67,2.3,7.93,7.93,0,0,1-3.8.9,8.18,8.18,0,0,1-4.27-1.13,7,7,0,0,1-2.82-3.24,11.64,11.64,0,0,1-.94-4.73A9.56,9.56,0,0,1,221,452a7.59,7.59,0,0,1,5.78-2.51,8.44,8.44,0,0,1,3.56.77,6.45,6.45,0,0,1,2.65,2.16,8.59,8.59,0,0,1,1.34,3.3,25.26,25.26,0,0,1,.2,4H221.81a7.9,7.9,0,0,0,.59,2.92,4.09,4.09,0,0,0,1.68,2,5.42,5.42,0,0,0,5.48-.11,5.69,5.69,0,0,0,1.84-2.67Zm-2.79-4.48a5.8,5.8,0,0,0-1.4-3.95,4.45,4.45,0,0,0-3.33-1.32,4.64,4.64,0,0,0-3.37,1.37,6,6,0,0,0-1.59,3.9Z" transform="translate(-10.87 -368.19)"/><path class="cls-3" d="M252.06,452.22v-8.69H255v23.83h-2.64v-2.17a13.29,13.29,0,0,1-1.56,1.52,5.8,5.8,0,0,1-1.65.85,6.78,6.78,0,0,1-2.18.34,6.68,6.68,0,0,1-5.19-2.29c-1.38-1.52-2.07-3.71-2.07-6.55a13.91,13.91,0,0,1,.8-4.76,7.61,7.61,0,0,1,2.54-3.52,6.51,6.51,0,0,1,4-1.32,5.81,5.81,0,0,1,2.33.42,5.39,5.39,0,0,1,1.64,1.06,6.64,6.64,0,0,1,1,1.28m-9.35,6.65a7.89,7.89,0,0,0,1.46,5.12,3.92,3.92,0,0,0,3.21,1.38,4.45,4.45,0,0,0,3.59-1.63q1.35-1.64,1.35-5.26a7.92,7.92,0,0,0-1.07-4.45,4.18,4.18,0,0,0-3.68-2,4.47,4.47,0,0,0-2.45.72,4.75,4.75,0,0,0-1.77,2.31,10.16,10.16,0,0,0-.64,3.83" transform="translate(-10.87 -368.19)"/><polygon class="cls-3" points="263.84 99.17 263.84 75.34 267.03 75.34 267.03 96.37 279.13 96.37 279.13 99.17 263.84 99.17"/><path class="cls-3" d="M295.85,443.53h2.95v3.37h-2.95Zm0,6.47h2.95v17.36h-2.95Z" transform="translate(-10.87 -368.19)"/><path class="cls-3" d="M306.1,455.2a8,8,0,0,1,.5-2.45,4.53,4.53,0,0,1,1.19-1.69,5.79,5.79,0,0,1,2.14-1.16,10.28,10.28,0,0,1,3.17-.44,11.48,11.48,0,0,1,3.12.38,5.2,5.2,0,0,1,2.09,1.05,4,4,0,0,1,1.13,1.55,5.09,5.09,0,0,1,.36,2v9.66a1.61,1.61,0,0,0,.25,1.05.93.93,0,0,0,.71.28,5,5,0,0,0,1-.13v2.09a7.68,7.68,0,0,1-1.69.23,3.35,3.35,0,0,1-2.19-.59,2.77,2.77,0,0,1-.82-1.92,9.66,9.66,0,0,1-2.78,2.11,7.68,7.68,0,0,1-3.38.71,5.6,5.6,0,0,1-4-1.43,4.85,4.85,0,0,1-1.49-3.66,5.5,5.5,0,0,1,.48-2.34,4.75,4.75,0,0,1,1.37-1.73,4.85,4.85,0,0,1,1.43-.81,7,7,0,0,1,1.94-.49l4.7-.58a1.92,1.92,0,0,0,1.28-.58,2.17,2.17,0,0,0,.39-1.42,2.75,2.75,0,0,0-.91-2.22,4.68,4.68,0,0,0-3-.78,4.46,4.46,0,0,0-3,.83,3.59,3.59,0,0,0-1.13,2.51Zm10.77,3.33a3.8,3.8,0,0,1-1,.45,24.57,24.57,0,0,1-2.84.5c-1,.14-1.71.26-2,.34a5,5,0,0,0-1.56.63,2.57,2.57,0,0,0-.86.88,2.6,2.6,0,0,0-.27,1.23,2.79,2.79,0,0,0,.85,2.13,3.32,3.32,0,0,0,2.41.82,6.1,6.1,0,0,0,3.62-1.16,3.55,3.55,0,0,0,1.65-3Z" transform="translate(-10.87 -368.19)"/><path class="cls-3" d="M327.25,443.53h2.95v8.69a6.21,6.21,0,0,1,1.89-1.9,6.3,6.3,0,0,1,3.28-.86,7,7,0,0,1,3.66,1,6.35,6.35,0,0,1,2.62,3,11.73,11.73,0,0,1,.9,4.79,10.66,10.66,0,0,1-2.35,7.27,6.54,6.54,0,0,1-5.14,2.32,6.18,6.18,0,0,1-3.34-.88,5.46,5.46,0,0,1-1.77-1.88v2.22h-2.7Zm7.54,21.76a4.25,4.25,0,0,0,3.4-1.64q1.37-1.63,1.36-5.19a7.51,7.51,0,0,0-1.29-4.86,4.16,4.16,0,0,0-3.31-1.53,4.62,4.62,0,0,0-3.62,1.63,7.38,7.38,0,0,0-1.43,5,7.7,7.7,0,0,0,1.37,5,4.39,4.39,0,0,0,3.52,1.62" transform="translate(-10.87 -368.19)"/><path class="cls-3" d="M348.93,443.53h2.95v3.37h-2.95Zm0,6.47h2.95v17.36h-2.95Z" transform="translate(-10.87 -368.19)"/><rect class="cls-3" x="348.36" y="75.34" width="2.95" height="23.83"/><path class="cls-3" d="M369.52,443.53h3v3.37h-3Zm0,6.47h3v17.36h-3Z" transform="translate(-10.87 -368.19)"/><path class="cls-3" d="M380.34,450v-4.85h2.94V450h2.77v2.38h-2.77v11.33a1.41,1.41,0,0,0,.37,1.07,1.91,1.91,0,0,0,1.3.34c.33,0,.7,0,1.1-.06v2.32a7.65,7.65,0,0,1-2.11.26,3.72,3.72,0,0,1-2.74-.87,4.06,4.06,0,0,1-.86-2.91V452.38H378V450Z" transform="translate(-10.87 -368.19)"/><path class="cls-3" d="M391.06,450h3.29L399,464.25,403.64,450h3.29l-6.64,18.06a19.62,19.62,0,0,1-2.47,5.14,3.9,3.9,0,0,1-3.16,1.25,9,9,0,0,1-2-.25v-2.69a5.16,5.16,0,0,0,1.77.34,2.13,2.13,0,0,0,1.28-.37,2.6,2.6,0,0,0,.84-1.2l1-2.45Z" transform="translate(-10.87 -368.19)"/><path class="cls-3" d="M441.44,450.6a7.77,7.77,0,0,0-1.08-2.31,6.19,6.19,0,0,0-2.27-1.86,7.21,7.21,0,0,0-3.18-.68,7.53,7.53,0,0,0-4.13,1.13A7.69,7.69,0,0,0,428,450.2a12.17,12.17,0,0,0-1.05,5.29q0,4.59,2.25,7.12a7,7,0,0,0,5.47,2.53,6.73,6.73,0,0,0,4.59-1.69,7.7,7.7,0,0,0,2.43-4.62h3.08a11.72,11.72,0,0,1-1.14,3.83,9.94,9.94,0,0,1-2.2,2.82,9.84,9.84,0,0,1-3,1.84,10.7,10.7,0,0,1-3.88.64,10.57,10.57,0,0,1-4.82-1,10.05,10.05,0,0,1-3.23-2.53,10.85,10.85,0,0,1-1.89-3.33,16.42,16.42,0,0,1-.88-5.44A16.12,16.12,0,0,1,425,448.9a9.6,9.6,0,0,1,3.93-4.46,11.39,11.39,0,0,1,5.88-1.51,11.79,11.79,0,0,1,4.89,1,8.41,8.41,0,0,1,3.57,3.06,8.88,8.88,0,0,1,1.27,3.6Z" transform="translate(-10.87 -368.19)"/><path class="cls-3" d="M466.58,458.67a13.37,13.37,0,0,1-.49,3.63,8.15,8.15,0,0,1-1,2.31,7.18,7.18,0,0,1-1.63,1.76,7,7,0,0,1-2.23,1.14,9,9,0,0,1-2.66.39,8.21,8.21,0,0,1-4.23-1.07,7.06,7.06,0,0,1-2.83-3.16,11.32,11.32,0,0,1-1-5,10.12,10.12,0,0,1,2.1-6.68,7.33,7.33,0,0,1,6-2.53,8.22,8.22,0,0,1,4.31,1.12,6.9,6.9,0,0,1,2.81,3.25,11.84,11.84,0,0,1,.94,4.84m-3,0a7.34,7.34,0,0,0-1.44-4.94,4.81,4.81,0,0,0-7.27,0,9.21,9.21,0,0,0,0,9.89,4.79,4.79,0,0,0,7.27,0,7.37,7.37,0,0,0,1.44-4.95" transform="translate(-10.87 -368.19)"/><path class="cls-3" d="M472.81,450h2.95v2.4a10.21,10.21,0,0,1,1.24-1.48,6,6,0,0,1,1.72-1.07,5.31,5.31,0,0,1,2-.39,5.54,5.54,0,0,1,2,.37,4.48,4.48,0,0,1,1.57.95,5.72,5.72,0,0,1,1.11,1.62,7.84,7.84,0,0,1,2.36-2.26,5.48,5.48,0,0,1,2.78-.68,6.09,6.09,0,0,1,2.7.57,5,5,0,0,1,1.8,1.35,4.27,4.27,0,0,1,.84,1.71,13.13,13.13,0,0,1,.21,2.71v11.56h-3V455.19a3.13,3.13,0,0,0-.81-2.31,3,3,0,0,0-2.21-.81,3.89,3.89,0,0,0-3,1.29,5.05,5.05,0,0,0-1.21,3.61v10.39H483v-12a3.58,3.58,0,0,0-.72-2.48,2.69,2.69,0,0,0-2.07-.78,4,4,0,0,0-3.15,1.48,5.25,5.25,0,0,0-1.29,3.58v10.23h-2.95Z" transform="translate(-10.87 -368.19)"/><path class="cls-3" d="M503.29,474.2V450h2.95v2.14a8.14,8.14,0,0,1,2.17-1.92,6.52,6.52,0,0,1,3.07-.76,6.83,6.83,0,0,1,3.51,1,6.55,6.55,0,0,1,2.6,3,12.62,12.62,0,0,1,.92,5.27,12.78,12.78,0,0,1-.87,5,6.5,6.5,0,0,1-2.6,3.1,7.22,7.22,0,0,1-3.89,1.07,6.28,6.28,0,0,1-2.35-.41,5.45,5.45,0,0,1-1.76-1.12,4.21,4.21,0,0,1-.8-1.08v8.91Zm2.89-15.46c0,2.26.43,3.91,1.31,5a4.13,4.13,0,0,0,3.32,1.58,4.24,4.24,0,0,0,3.38-1.58,7.69,7.69,0,0,0,1.33-5c0-2.32-.45-4-1.33-5.07a4.17,4.17,0,0,0-3.38-1.6,4.1,4.1,0,0,0-3.32,1.6c-.88,1.06-1.31,2.75-1.31,5.07" transform="translate(-10.87 -368.19)"/><path class="cls-3" d="M524.81,455.2a8,8,0,0,1,.49-2.45,4.67,4.67,0,0,1,1.2-1.69,5.71,5.71,0,0,1,2.14-1.16,10.28,10.28,0,0,1,3.17-.44,11.48,11.48,0,0,1,3.12.38,5.2,5.2,0,0,1,2.09,1.05,4,4,0,0,1,1.13,1.55,5.09,5.09,0,0,1,.36,2v9.66a1.61,1.61,0,0,0,.25,1.05.93.93,0,0,0,.71.28,5,5,0,0,0,1-.13v2.09a7.68,7.68,0,0,1-1.69.23,3.33,3.33,0,0,1-2.19-.59,2.77,2.77,0,0,1-.82-1.92,9.8,9.8,0,0,1-2.78,2.11,7.68,7.68,0,0,1-3.38.71,5.6,5.6,0,0,1-4-1.43,4.82,4.82,0,0,1-1.49-3.66,5.5,5.5,0,0,1,.48-2.34,4.75,4.75,0,0,1,1.37-1.73,4.85,4.85,0,0,1,1.43-.81,7,7,0,0,1,1.94-.49l4.7-.58a2,2,0,0,0,1.28-.58,2.17,2.17,0,0,0,.39-1.42,2.75,2.75,0,0,0-.91-2.22,4.68,4.68,0,0,0-3.05-.78,4.49,4.49,0,0,0-3,.83,3.63,3.63,0,0,0-1.12,2.51Zm10.77,3.33a3.8,3.8,0,0,1-1,.45,24.57,24.57,0,0,1-2.84.5c-1,.14-1.71.26-2,.34a5,5,0,0,0-1.56.63,2.57,2.57,0,0,0-.86.88,2.6,2.6,0,0,0-.27,1.23,2.79,2.79,0,0,0,.85,2.13,3.32,3.32,0,0,0,2.41.82,6.12,6.12,0,0,0,3.62-1.16,3.55,3.55,0,0,0,1.65-3Z" transform="translate(-10.87 -368.19)"/><path class="cls-3" d="M546.2,450H549v2.45a7.88,7.88,0,0,1,1.2-1.37,6.66,6.66,0,0,1,2-1.2,6.89,6.89,0,0,1,2.45-.42,6.06,6.06,0,0,1,2.83.62,5.06,5.06,0,0,1,1.8,1.45,4.6,4.6,0,0,1,.84,1.84,13.76,13.76,0,0,1,.23,2.85v11.14h-3v-11a7.11,7.11,0,0,0-.33-2.54,2.72,2.72,0,0,0-1.17-1.3,3.77,3.77,0,0,0-2-.49,4.89,4.89,0,0,0-2.19.5,3.9,3.9,0,0,0-1.58,1.36,5.67,5.67,0,0,0-.82,1.92,8.54,8.54,0,0,0-.18,2v9.53H546.2Z" transform="translate(-10.87 -368.19)"/><path class="cls-3" d="M564.67,450H568l4.65,14.25L577.25,450h3.29l-6.65,18.06a19.68,19.68,0,0,1-2.46,5.14,3.91,3.91,0,0,1-3.16,1.25,8.89,8.89,0,0,1-2-.25v-2.69a5.07,5.07,0,0,0,1.76.34,2.11,2.11,0,0,0,1.28-.37,2.61,2.61,0,0,0,.85-1.2l1-2.45Z" transform="translate(-10.87 -368.19)"/></svg>