<svg width="140" height="36" fill="none" xmlns="http://www.w3.org/2000/svg"><g clip-path="url(#clip0_38_383)"><path d="M89.69 27.472l-2.158-6.075h-11.75l-2.15 6.075h-3.056L80.463.618h2.413l9.837 26.854H89.69zM81.708 4.73l-5.08 14.18h10.049l-4.97-14.18zM100.594 36a8.181 8.181 0 01-6.298-2.496l1.803-1.734a5.721 5.721 0 004.453 1.853c3.589 0 5.079-2.539 5.079-5.694v-2.911a5.966 5.966 0 01-5.206 2.42 6.326 6.326 0 01-4.487-1.692c-1.854-1.845-2.269-4.713-2.269-7.725 0-3.012.415-5.922 2.27-7.733a6.445 6.445 0 014.52-1.624 5.859 5.859 0 015.214 2.41V8.918h2.675v19.121c-.017 4.603-2.886 7.962-7.754 7.962zm.415-24.9c-4.038 0-4.64 3.47-4.64 6.947s.602 6.937 4.64 6.937c4.038 0 4.605-3.469 4.605-6.938 0-3.468-.567-6.946-4.605-6.946zm22.534 1.363a3.853 3.853 0 00-3.208-1.363c-2.718 0-4.453 2.15-4.453 4.984v11.388h-2.718V8.918h2.718v2.259a6.231 6.231 0 015.206-2.488 5.742 5.742 0 014.461 1.692l-2.006 2.082zm14.197 13.122a7.758 7.758 0 01-10.65 0c-1.887-1.92-2.26-4.526-2.26-7.395 0-2.868.373-5.465 2.26-7.386a7.758 7.758 0 0110.65 0c1.879 1.92 2.26 4.527 2.26 7.386 0 2.86-.381 5.474-2.26 7.395zm-1.93-13.122a4.726 4.726 0 00-3.386-1.363 4.679 4.679 0 00-3.387 1.363c-1.354 1.353-1.506 3.655-1.506 5.727 0 2.073.152 4.383 1.506 5.737a4.67 4.67 0 003.387 1.353 4.731 4.731 0 003.386-1.353c1.363-1.354 1.473-3.655 1.473-5.737 0-2.08-.11-4.374-1.473-5.727z" fill="#95C11F"/><path d="M55.719 21.033l6.467 6.464v-9.806l-6.467-6.464v9.806zm0-11.227l6.467 6.464V6.464L55.72 0v9.806zm13.967 11.227l-6.467 6.464v-9.806l6.467-6.464v9.806z" fill="#20398B"/><path d="M69.686 9.806L63.22 16.27V6.464L69.686 0v9.806z" fill="#95C11F"/><path d="M10.167 17.818v5.457c0 .325.017.65.051.973.009.134.04.266.093.39a.999.999 0 00.601.55c.254.094.518.16.787.194.314.01.625.065.923.16a.322.322 0 01.203.322v.71c0 .28-.143.424-.448.424h-.5l-.846-.05c-.347 0-.694 0-1.067-.052H7.966l-1.1.051-1.016.05h-.728c-.186 0-.305-.05-.347-.134a.626.626 0 01-.068-.288v-.584a.423.423 0 01.161-.372c.268-.119.554-.19.847-.212a3.07 3.07 0 001.244-.414 1.361 1.361 0 00.406-.973V6.963c0-.178-.127-.482-.304-.541a3.922 3.922 0 00-1.118-.102H4.165l-1.015.06c-.314 0-.508.05-.593.067a.999.999 0 00-.55.516 6.08 6.08 0 00-.322 1.032.99.99 0 01-.262.533.542.542 0 01-.288.076H.618a.398.398 0 01-.321-.11.846.846 0 01-.127-.465L.034 4.95a2.774 2.774 0 01.051-.6c0-.153.186-.22.466-.22h3.538c.635 0 1.33 0 2.1.05h4.952c.84 0 1.653-.016 2.438-.05h3.437c.245 0 .465.084.508.254.05.184.073.375.067.566v3.08c-.007.116-.03.23-.067.339 0 .16-.204.236-.483.236H16.5c-.22 0-.355-.059-.406-.186a9.372 9.372 0 01-.28-1.032 1.108 1.108 0 00-.448-.795 2.253 2.253 0 00-.931-.212h-3.268c-.364 0-.592.076-.694.229a1.885 1.885 0 00-.203.71c0 .39-.017.863-.05 1.422v9.079h-.052zm13.84 8.689a.846.846 0 01-.059.322c-.042.11-.203.169-.482.169-.28 0-.61 0-1.05-.068-.44-.067-1.075-.067-1.888-.067h-1.371c-.356 0-.644 0-.847.05l-.5.051h-.313c-.211 0-.346-.06-.397-.17a.634.634 0 01-.085-.32v-.517a.328.328 0 01.102-.254c.226-.153.474-.273.736-.355a2.26 2.26 0 00.474-.262c.128-.098.237-.219.322-.356.114-.184.216-.377.305-.575.11-.237.245-.55.414-.94.288-.659.635-1.522 1.05-2.537.415-1.015.847-2.166 1.346-3.384.5-1.219.948-2.471 1.43-3.774l1.372-3.706c.432-1.176.847-2.225 1.151-3.164.305-.94.576-1.692.72-2.14a.846.846 0 01.212-.356c.15-.1.32-.166.499-.194l.39-.102.55-.127.541-.127c.109-.03.219-.054.33-.067.142 0 .26.118.356.355.339 1.184.737 2.507 1.194 3.968.457 1.46.928 2.944 1.413 4.45a736.4 736.4 0 001.473 4.417 332.3 332.3 0 001.338 3.892c.406 1.15.762 2.106 1.05 2.868.152.464.35.912.592 1.337.09.135.212.245.356.321.135.068.38.16.745.296.152 0 .245.102.27.186.038.115.055.235.051.356v.516a.432.432 0 01-.482.49h-.432l-.745-.05c-.27 0-.553-.017-.846-.051h-2.345c-.432 0-.77 0-1.033.05l-.61.051h-.355c-.17 0-.28 0-.322-.118a.786.786 0 01-.067-.372v-.516a.355.355 0 01.16-.339c.277-.107.56-.198.847-.27a6.93 6.93 0 00.906-.373.77.77 0 00.423-.761 5.311 5.311 0 00-.245-1.032 42.963 42.963 0 00-.55-1.693c-.204-.583-.399-1.184-.593-1.692a3.466 3.466 0 00-.424-.897.33.33 0 00-.27-.177 4.967 4.967 0 00-.568 0h-5.654a4.76 4.76 0 00-.77.067.483.483 0 00-.356.187 1.896 1.896 0 00-.195.372c0 .11-.16.398-.339.846-.177.448-.372.99-.567 1.548a38.17 38.17 0 00-.516 1.6 4.614 4.614 0 00-.246.947.745.745 0 00.407.744c.334.144.688.241 1.05.288.268.028.532.087.787.178.101.05.143.211.143.465l.017.516zm5.215-9.865a3.82 3.82 0 00.847-.068.338.338 0 00.245-.38 1.321 1.321 0 000-.263c0-.084-.085-.279-.195-.583l-2.065-6.515-.212-.542c-.093-.262-.186-.389-.27-.389a.212.212 0 00-.195.144c0 .093-.136.364-.288.787l-2.362 6.514c-.04.161-.087.32-.144.474a1.778 1.778 0 00-.11.432.28.28 0 00.254.304c.3.045.602.074.906.085h3.589zm22.154-8.977a1.565 1.565 0 01-.144.533c-.06.076-.203.11-.44.11h-.517a.407.407 0 01-.338-.11 3.006 3.006 0 01-.237-.66 3.115 3.115 0 00-.322-.846 1.583 1.583 0 00-.847-.55l-.804-.169a5.14 5.14 0 00-1.32-.127 3.98 3.98 0 00-2.794.973 3.131 3.131 0 00-1.05 2.36 3.1 3.1 0 00.28 1.338c.196.405.456.776.77 1.1.34.368.715.705 1.117 1.006.432.322.847.652 1.389.999.795.558 1.456 1.023 1.98 1.404.526.38.974.702 1.33.973.355.27.643.508.846.72.233.213.45.442.652.684.46.544.829 1.158 1.092 1.82a5.57 5.57 0 01.39 2.08 5.277 5.277 0 01-.568 2.438 5.788 5.788 0 01-1.566 1.92 7.265 7.265 0 01-2.336 1.244c-.945.295-1.93.44-2.92.431-.39 0-.847 0-1.262-.059-.415-.06-.898-.11-1.355-.195-.457-.084-.846-.177-1.303-.27a7.299 7.299 0 01-1.118-.347c-.254-.102-.406-.22-.448-.347a1.13 1.13 0 010-.457l.16-2.614c.018-.153.052-.303.102-.449 0-.127.17-.194.381-.194h.618a.576.576 0 01.415.11c.124.227.212.473.262.727.093.448.33.853.678 1.151.33.28.705.503 1.108.66.376.145.769.242 1.169.288.372 0 .643.067.846.067a5.892 5.892 0 001.482-.211 4.928 4.928 0 001.363-.61c.427-.29.79-.664 1.066-1.1.29-.481.434-1.037.415-1.598a3.384 3.384 0 00-.254-1.337 4.408 4.408 0 00-.846-1.227 13.348 13.348 0 00-1.694-1.388l-2.65-1.886a27 27 0 01-1.532-1.16 9.667 9.667 0 01-1.37-1.336 5.99 5.99 0 01-1.025-1.658 5.396 5.396 0 01-.373-2.056 6.244 6.244 0 01.373-1.972c.25-.732.65-1.403 1.177-1.971A6.35 6.35 0 0143.613 4.4a8.546 8.546 0 013.386-.593c.39 0 .847 0 1.261.06.415.059.847.101 1.296.177.448.076.77.16 1.092.254.241.057.47.158.677.296.129.1.226.235.28.39.026.156.026.316 0 .473l-.23 2.208z" fill="#20398B"/></g><defs><clipPath id="clip0_38_383"><path fill="#fff" d="M0 0h140v36H0z"/></clipPath></defs></svg>